# xmcd
#
# Track frame offsets:
#	150
#	19537
#	33307
#	47974
#	73313
#	90707
#	110266
#	127157
#	142770
#	160421
#
# Disc length: 2358 seconds
#
# Revision: 1
# Processed by: cddbd v1.4PL0 Copyright (c) Steve Scherf et al.
# Submitted via: audiograbber 1.82.00
#
DISCID=8709340a
DTITLE=Toby Keith - Blue Moon
DYEAR=1996
DGENRE=Country
TTITLE0=The Lonely
TTITLE1=Every Night
TTITLE2=Closin' Time At Home
TTITLE3=A Woman's Touch
TTITLE4=Does That Blue Moon Ever Shine On You
TTITLE5=Lucky Me
TTITLE6=She's Perfect 
TTITLE7=She's Gonna Get It
TTITLE8=Me Too
TTITLE9=Hello
EXTD=
EXTT0=
EXTT1=
EXTT2=
EXTT3=
EXTT4=
EXTT5=
EXTT6=
EXTT7=
EXTT8=
EXTT9=
PLAYORDER=
